<?xml version="1.0" standalone="no"?>
<svg xmlns:xlink="http://www.w3.org/1999/xlink" id="wave" style="transform:rotate(180deg); transition: 0.3s" viewBox="0 0 1440 150" version="1.1" xmlns="http://www.w3.org/2000/svg"><defs><linearGradient id="sw-gradient-0" x1="0" x2="0" y1="1" y2="0"><stop stop-color="rgba(249, 240, 219, 1)" offset="0%"/><stop stop-color="rgba(249, 240, 219, 1)" offset="100%"/></linearGradient></defs><path style="transform:translate(0, 0px); opacity:1" fill="url(#sw-gradient-0)" d="M0,15L24,22.5C48,30,96,45,144,45C192,45,240,30,288,25C336,20,384,25,432,30C480,35,528,40,576,45C624,50,672,55,720,60C768,65,816,70,864,80C912,90,960,105,1008,115C1056,125,1104,130,1152,117.5C1200,105,1248,75,1296,67.5C1344,60,1392,75,1440,70C1488,65,1536,40,1584,25C1632,10,1680,5,1728,20C1776,35,1824,70,1872,72.5C1920,75,1968,45,2016,37.5C2064,30,2112,45,2160,47.5C2208,50,2256,40,2304,50C2352,60,2400,90,2448,97.5C2496,105,2544,90,2592,70C2640,50,2688,25,2736,27.5C2784,30,2832,60,2880,62.5C2928,65,2976,40,3024,32.5C3072,25,3120,35,3168,37.5C3216,40,3264,35,3312,27.5C3360,20,3408,10,3432,5L3456,0L3456,150L3432,150C3408,150,3360,150,3312,150C3264,150,3216,150,3168,150C3120,150,3072,150,3024,150C2976,150,2928,150,2880,150C2832,150,2784,150,2736,150C2688,150,2640,150,2592,150C2544,150,2496,150,2448,150C2400,150,2352,150,2304,150C2256,150,2208,150,2160,150C2112,150,2064,150,2016,150C1968,150,1920,150,1872,150C1824,150,1776,150,1728,150C1680,150,1632,150,1584,150C1536,150,1488,150,1440,150C1392,150,1344,150,1296,150C1248,150,1200,150,1152,150C1104,150,1056,150,1008,150C960,150,912,150,864,150C816,150,768,150,720,150C672,150,624,150,576,150C528,150,480,150,432,150C384,150,336,150,288,150C240,150,192,150,144,150C96,150,48,150,24,150L0,150Z"/></svg>